mtllib pickle.mtl
# object pickle
g pickle
v 6.51328 3.24212 3.72131
v 5.5849 2.80776 2.43387
v 5.26488 2.76764 3.02501
v 4.90529 1.62106 1.49141
v 4.36654 1.58094 2.53683
v 4.65653 3.06152e-016 1.14644
v 4.041 3.06152e-016 2.3627
v 4.90529 -1.62106 1.49141
v 4.36654 -1.58094 2.53683
v 5.5849 -2.80776 2.43387
v 5.26488 -2.76764 3.02501
v 6.51328 -3.24212 3.72131
v 5.12961 2.73362 3.71478
v 4.13867 1.54693 3.74047
v 3.78061 3.06152e-016 3.75632
v 4.13867 -1.54693 3.74047
v 5.12961 -2.73362 3.71478
v 5.19747 2.7109 4.39512
v 4.24977 1.5242 4.90994
v 3.90617 3.06152e-016 5.10292
v 4.24977 -1.5242 4.90994
v 5.19747 -2.7109 4.39512
v 5.46033 2.70292 4.96551
v 4.68953 1.51622 5.87634
v 4.40739 3.06152e-016 6.20972
v 4.68953 -1.51622 5.87634
v 5.46033 -2.70292 4.96551
v 5.8835 2.7109 5.34649
v 5.40694 1.5242 6.51465
v 5.22922 3.06152e-016 6.93767
v 5.40694 -1.5242 6.51465
v 5.8835 -2.7109 5.34649
v 6.40786 2.73362 5.48741
v 6.30871 1.54693 6.74981
v 6.26778 3.06152e-016 7.20544
v 6.30871 -1.54693 6.74981
v 6.40786 -2.73362 5.48741
v 6.95578 2.76764 5.36988
v 7.26418 1.58094 6.55517
v 7.37378 3.06152e-016 6.98446
v 7.26418 -1.58094 6.55517
v 6.95578 -2.76764 5.36988
v 7.44165 2.80776 5.00874
v 8.12126 1.62106 5.95121
v 8.37002 3.06152e-016 6.29618
v 8.12126 -1.62106 5.95121
v 7.44165 -2.80776 5.00874
v 27.2002 4.22362 0.684622
v 26.6869 4.1835 0.301081
v 26.0664 4.82094 2.58469
v 28.0372 2.48212 -0.73237
v 27.1412 2.442 -1.37064
v 28.3451 0.0630557 -1.25653
v 27.3075 0.0630557 -1.98253
v 28.0372 -2.35601 -0.73237
v 27.1412 -2.31589 -1.37064
v 27.2002 -4.09751 0.684622
v 26.6869 -4.05739 0.301081
v 26.0664 -4.69483 2.58469
v 27.5383 4.25764 1.36634
v 28.6259 2.51613 0.437607
v 29.0261 0.0630557 0.0898828
v 28.6259 -2.39002 0.437607
v 27.5383 -4.13152 1.36634
v 27.649 4.28036 2.24613
v 28.8147 2.53886 1.97224
v 29.2428 0.0630557 1.86649
v 28.8147 -2.41274 1.97224
v 27.649 -4.15425 2.24613
v 27.5163 4.28834 3.18637
v 28.5778 2.54684 3.62684
v 28.9663 0.0630557 3.78806
v 28.5778 -2.42073 3.62684
v 27.5163 -4.16223 3.18637
v 27.1629 4.28036 4.03502
v 27.9585 2.53886 5.12278
v 28.2483 0.0630557 5.52643
v 27.9585 -2.41274 5.12278
v 27.1629 -4.15425 4.03502
v 26.645 4.25764 4.65395
v 27.0585 2.51613 6.20559
v 27.2078 0.0630557 6.78132
v 27.0585 -2.39002 6.20559
v 26.645 -4.13152 4.65395
v 26.0424 4.22362 4.94527
v 26.0177 2.48212 6.69938
v 26.0072 0.0630557 7.34693
v 26.0177 -2.35601 6.69938
v 26.0424 -4.09751 4.94527
v 25.4458 4.1835 4.8683
v 24.9916 2.442 6.54002
v 24.8253 0.0630557 7.15191
v 24.9916 -2.31589 6.54002
v 25.4458 -4.05739 4.8683
v 9.24167 3.48424 1.73648
v 8.66385 3.01744 0.110226
v 12.2569 3.72635 0.435779
v 11.8475 3.22712 -1.37738
v 15.3427 3.96847 -1.14523e-016
v 15.3427 3.4368 -1.98424
v 18.4373 4.21059 0.218097
v 18.7926 3.64648 -1.85576
v 21.5143 4.45271 0.871557
v 21.9809 3.85616 -1.30001
v 24.5559 4.69483 1.95789
v 25.1683 4.06584 -0.295451
v 8.24085 1.74212 -1.08028
v 11.5477 1.86318 -2.7047
v 15.3427 1.98424 -3.4368
v 19.0526 2.1053 -3.37393
v 22.3225 2.22635 -2.88971
v 25.6165 2.34741 -1.94501
v 8.08603 -5.47212e-016 -1.51603
v 4.65653 -4.87912e-016 1.14644
v 11.438 -6.06512e-016 -3.19053
v 15.3427 -6.65812e-016 -3.96847
v 19.1478 -7.25112e-016 -3.92962
v 22.4476 -7.84411e-016 -3.47158
v 25.7806 -8.43711e-016 -2.5488
v 8.24085 -1.74212 -1.08028
v 11.5477 -1.86318 -2.7047
v 15.3427 -1.98424 -3.4368
v 19.0526 -2.1053 -3.37393
v 22.3225 -2.22635 -2.88971
v 25.6165 -2.34741 -1.94501
v 8.66385 -3.01744 0.110226
v 11.8475 -3.22712 -1.37738
v 15.3427 -3.4368 -1.98424
v 18.7926 -3.64648 -1.85576
v 21.9809 -3.85616 -1.30001
v 25.1683 -4.06584 -0.295451
v 9.24167 -3.48424 1.73648
v 12.2569 -3.72635 0.435779
v 15.3427 -3.96847 3.71459e-016
v 18.4373 -4.21059 0.218097
v 21.5143 -4.45271 0.871557
v 24.5559 -4.69483 1.95789
v 9.81949 -3.01744 3.36274
v 12.6664 -3.22712 2.24893
v 15.3427 -3.4368 1.98424
v 18.0821 -3.64648 2.29196
v 21.0477 -3.85616 3.04312
v 23.9436 -4.06584 4.21124
v 10.2425 -1.74212 4.55324
v 12.9661 -1.86318 3.57625
v 15.3427 -1.98424 3.4368
v 17.8221 -2.1053 3.81013
v 20.7061 -2.22635 4.63282
v 23.4954 -2.34741 5.8608
v 10.3973 3.06152e-016 4.98899
v 13.0758 3.06152e-016 4.06209
v 15.3427 3.06152e-016 3.96847
v 17.7269 3.06152e-016 4.36581
v 20.581 3.06152e-016 5.21469
v 23.3313 3.06152e-016 6.46458
v 10.2425 1.74212 4.55324
v 12.9661 1.86318 3.57625
v 15.3427 1.98424 3.4368
v 17.8221 2.1053 3.81013
v 20.7061 2.22635 4.63282
v 23.4954 2.34741 5.8608
v 9.81949 3.01744 3.36274
v 12.6664 3.22712 2.24893
v 15.3427 3.4368 1.98424
v 18.0821 3.64648 2.29196
v 21.0477 3.85616 3.04312
v 23.9436 4.06584 4.21124
# 167 verticies
vt 1 0.12085
vt 0.916504 0.12085
vt 0.921875 0.0976563
vt 0.833252 0.12085
vt 0.838867 0.0808105
vt 0.75 0.12085
vt 0.75 0.074707
vt 0.666504 0.12085
vt 0.660889 0.0808105
vt 0.583252 0.12085
vt 0.577881 0.0976563
vt 0.5 0.12085
vt 0.938232 0.078125
vt 0.858887 0.046875
vt 0.75 0.0354004
vt 0.640869 0.046875
vt 0.561523 0.078125
vt 0.965332 0.0649414
vt 0.906738 0.0241699
vt 0.75 0.0090332
vt 0.593018 0.0241699
vt 0.534424 0.0649414
vt 1 0.0603027
vt 1 0.0161133
vt 0.875 0
vt 0.625 0
vt 0.5 0.0161133
vt 0.5 0.0603027
vt 1.03442 0.0649414
vt 1.09302 0.0241699
vt 1.04639 0
vt 1.25 0.0090332
vt 0.25 0.0090332
vt 0.375 0
vt 0.406738 0.0241699
vt 0.465332 0.0649414
vt 0 0.12085
vt 0.0344238 0.0649414
vt 0.0615234 0.078125
vt 0.0930176 0.0241699
vt 0.140869 0.046875
vt 0.25 0.0354004
vt 0.358887 0.046875
vt 0.438232 0.078125
vt 0.0778809 0.0976563
vt 0.160889 0.0808105
vt 0.25 0.074707
vt 0.338867 0.0808105
vt 0.421875 0.0976563
vt 0.083252 0.12085
vt 0.166504 0.12085
vt 0.25 0.12085
vt 0.333252 0.12085
vt 0.416504 0.12085
vt 0.921875 0.9021
vt 0.916504 0.878906
vt 1 0.878906
vt 0.838867 0.918945
vt 0.833252 0.878906
vt 0.75 0.925049
vt 0.75 0.878906
vt 0.660889 0.918945
vt 0.666504 0.878906
vt 0.577881 0.9021
vt 0.583252 0.878906
vt 0.5 0.878906
vt 0.938232 0.921631
vt 0.858887 0.952881
vt 0.75 0.964355
vt 0.640869 0.952881
vt 0.561523 0.921631
vt 0.965332 0.934814
vt 0.906738 0.975586
vt 0.75 0.990723
vt 0.593018 0.975586
vt 0.534424 0.934814
vt 1 0.939453
vt 1 0.983643
vt 0.875 1
vt 0.5 0.983643
vt 0.625 1
vt 0.5 0.939453
vt 1.03442 0.934814
vt 1.09302 0.975586
vt 1.25 0.990723
vt 0.546387 1
vt 0.406738 0.975586
vt 0.375 1
vt 0.25 0.990723
vt 0.465332 0.934814
vt 0.0615234 0.921631
vt 0.0344238 0.934814
vt 0 0.878906
vt 0.140869 0.952881
vt 0.0930176 0.975586
vt 0.25 0.964355
vt 0.358887 0.952881
vt 0.438232 0.921631
vt 0.0778809 0.9021
vt 0.160889 0.918945
vt 0.25 0.925049
vt 0.338867 0.918945
vt 0.421875 0.9021
vt 0.083252 0.878906
vt 0.166504 0.878906
vt 0.25 0.878906
vt 0.333252 0.878906
vt 0.416504 0.878906
vt 1 0.241943
vt 0.916504 0.241943
vt 1 0.363037
vt 0.916504 0.363037
vt 1 0.484131
vt 0.916504 0.484131
vt 1 0.605225
vt 0.916504 0.605225
vt 1 0.726318
vt 0.916504 0.726318
vt 1 0.847412
vt 0.916504 0.847412
vt 0.833252 0.241943
vt 0.833252 0.363037
vt 0.833252 0.484131
vt 0.833252 0.605225
vt 0.833252 0.726318
vt 0.833252 0.847412
vt 0.75 0.241943
vt 0.75 0.363037
vt 0.75 0.484131
vt 0.75 0.605225
vt 0.75 0.726318
vt 0.75 0.847412
vt 0.666504 0.241943
vt 0.666504 0.363037
vt 0.666504 0.484131
vt 0.666504 0.605225
vt 0.666504 0.726318
vt 0.666504 0.847412
vt 0.583252 0.241943
vt 0.583252 0.363037
vt 0.583252 0.484131
vt 0.583252 0.605225
vt 0.583252 0.726318
vt 0.583252 0.847412
vt 0.5 0.241943
vt 0.5 0.363037
vt 0.5 0.484131
vt 0.5 0.605225
vt 0.5 0.726318
vt 0.5 0.847412
vt 0.416504 0.241943
vt 0.416504 0.363037
vt 0.416504 0.484131
vt 0.416504 0.605225
vt 0.416504 0.726318
vt 0.416504 0.847412
vt 0.333252 0.241943
vt 0.333252 0.363037
vt 0.333252 0.484131
vt 0.333252 0.605225
vt 0.333252 0.726318
vt 0.333252 0.847412
vt 0.25 0.241943
vt 0.25 0.363037
vt 0.25 0.484131
vt 0.25 0.605225
vt 0.25 0.726318
vt 0.25 0.847412
vt 0.166504 0.241943
vt 0.166504 0.363037
vt 0.166504 0.484131
vt 0.166504 0.605225
vt 0.166504 0.726318
vt 0.166504 0.847412
vt 0.083252 0.241943
vt 0.083252 0.363037
vt 0.083252 0.484131
vt 0.083252 0.605225
vt 0.083252 0.726318
vt 0.083252 0.847412
vt 0 0.241943
vt 0 0.363037
vt 0 0.484131
vt 0 0.605225
vt 0 0.726318
vt 0 0.847412
# 186 texture verticies
vn -0.173401 0.980436 0.0931485
vn -0.440917 0.822445 -0.359412
vn -0.578843 0.793938 -0.186021
vn -0.679944 0.477821 -0.556204
vn -0.849003 0.447253 -0.281352
vn -0.889649 0.0775569 -0.450011
vn -0.947419 -0.00121974 -0.319994
vn -0.690845 -0.480412 -0.540312
vn -0.850785 -0.449526 -0.272196
vn -0.445113 -0.846911 -0.29089
vn -0.594854 -0.79081 -0.144111
vn -0.144912 -0.980184 0.135057
vn -0.619418 0.784764 -0.0216345
vn -0.894389 0.445917 -0.0350227
vn -0.999016 0.00212508 -0.0442988
vn -0.895015 -0.445297 -0.0256781
vn -0.616475 -0.787056 0.0223847
vn -0.588532 0.794657 0.148831
vn -0.854278 0.467998 0.226245
vn -0.966297 0.00449615 0.25739
vn -0.851711 -0.465405 0.240806
vn -0.566806 -0.800456 0.194942
vn -0.484338 0.816157 0.315125
vn -0.704407 0.501578 0.502226
vn -0.805255 0.0042836 0.592914
vn -0.692391 -0.498655 0.521477
vn -0.442577 -0.821886 0.358649
vn -0.308966 0.836538 0.452487
vn -0.421635 0.525892 0.738689
vn -0.471843 0.00074537 0.881682
vn -0.399994 -0.524001 0.751949
vn -0.251175 -0.838984 0.482719
vn -0.0848797 0.845473 0.52723
vn -0.0491468 0.526361 0.84884
vn -0.0298895 -0.00268246 0.99955
vn -0.0286767 -0.526529 0.849674
vn -0.0218293 -0.844468 0.535161
vn 0.147283 0.842424 0.518294
vn 0.317125 0.509608 0.799832
vn 0.389642 -0.00335232 0.92096
vn 0.331813 -0.511618 0.792557
vn 0.205188 -0.840008 0.502279
vn 0.247481 0.861703 0.442969
vn 0.472806 0.492399 0.730751
vn 0.55478 -0.000697286 0.831997
vn 0.472499 -0.492272 0.731036
vn 0.272777 -0.831552 0.483854
vn 0.445592 0.81573 -0.368825
vn 0.203781 0.863634 -0.461096
vn 0.105986 0.992885 0.0542726
vn 0.669565 0.469136 -0.575842
vn 0.393362 0.4938 -0.775518
vn 0.755819 0.00665967 -0.654747
vn 0.462868 0.00246178 -0.886424
vn 0.659457 -0.462491 -0.592636
vn 0.399946 -0.490174 -0.77445
vn 0.382314 -0.824437 -0.417302
vn 0.234582 -0.83378 -0.499783
vn 0.144559 -0.989392 0.0143633
vn 0.605735 0.776302 -0.17447
vn 0.871125 0.412815 -0.265941
vn 0.956649 0.00558735 -0.29119
vn 0.871113 -0.405878 -0.276452
vn 0.574657 -0.786206 -0.227266
vn 0.662485 0.748844 0.0186109
vn 0.927703 0.37323 0.00817017
vn 0.999946 0.00245081 0.0100603
vn 0.929053 -0.369935 0.00310011
vn 0.656412 -0.75384 -0.0291353
vn 0.634299 0.747632 0.19675
vn 0.897761 0.364252 0.247681
vn 0.964494 -0.000878501 0.264104
vn 0.898188 -0.365857 0.243735
vn 0.648466 -0.745587 0.153594
vn 0.521191 0.774223 0.359081
vn 0.785518 0.388578 0.481632
vn 0.856339 -0.00445798 0.516394
vn 0.786564 -0.394865 0.474762
vn 0.558552 -0.765452 0.319536
vn 0.305387 0.816999 0.489133
vn 0.537908 0.443597 0.716852
vn 0.612262 -0.00745481 0.79062
vn 0.547318 -0.451652 0.704595
vn 0.373427 -0.805824 0.459564
vn -0.00345082 0.843495 0.537126
vn 0.0973399 0.498664 0.861313
vn 0.13799 -0.00432778 0.990424
vn 0.123833 -0.501962 0.855979
vn 0.0882661 -0.84008 0.535234
vn -0.222049 0.834422 0.504415
vn -0.276129 0.498327 0.821841
vn -0.291536 0.000101442 0.95656
vn -0.244698 -0.498518 0.831627
vn -0.147323 -0.865003 0.479652
vn -0.0594852 0.997985 0.0220982
vn -0.301035 0.856927 -0.418395
vn -0.0615182 0.998031 0.0122347
vn -0.190415 0.862521 -0.468829
vn -0.0686063 0.997644 0.000430749
vn -0.0779705 0.863871 -0.497643
vn -0.0713873 0.997391 -0.0107146
vn 0.00284404 0.863735 -0.503938
vn -0.0683 0.997551 -0.0150541
vn 0.0693061 0.865091 -0.496803
vn -0.071996 0.997217 -0.0193399
vn 0.113569 0.865074 -0.488619
vn -0.47105 0.489621 -0.733746
vn -0.286092 0.497128 -0.819155
vn -0.0871473 0.498935 -0.862247
vn 0.0560003 0.49865 -0.864993
vn 0.168276 0.499524 -0.849799
vn 0.252764 0.498508 -0.829217
vn -0.533538 0.000368238 -0.845776
vn -0.612172 -0.083853 -0.786266
vn -0.324746 8.82079e-005 -0.945801
vn -0.0938098 0.000425804 -0.99559
vn 0.0735547 0.000197207 -0.997291
vn 0.202454 0.000172179 -0.979292
vn 0.309145 0.000335219 -0.951015
vn -0.477776 -0.488772 -0.729953
vn -0.297389 -0.496525 -0.815489
vn -0.096291 -0.497944 -0.861847
vn 0.0507342 -0.498156 -0.865602
vn 0.162836 -0.499238 -0.851027
vn 0.269211 -0.497781 -0.824463
vn -0.313508 -0.855874 -0.411331
vn -0.210881 -0.861051 -0.462731
vn -0.0938205 -0.862626 -0.497065
vn -0.00614797 -0.863056 -0.505071
vn 0.0594628 -0.864645 -0.498852
vn 0.142607 -0.865115 -0.480873
vn -0.0754508 -0.996659 0.0312849
vn -0.086571 -0.996066 0.0189172
vn -0.086824 -0.996223 0.00102693
vn -0.0815402 -0.996597 -0.0120926
vn -0.0801646 -0.996623 -0.017802
vn -0.0382151 -0.99922 -0.00995104
vn 0.174273 -0.863523 0.47324
vn 0.0436119 -0.864351 0.500994
vn -0.0771315 -0.862957 0.499355
vn -0.155106 -0.862847 0.481079
vn -0.217874 -0.860289 0.460905
vn -0.22334 -0.86089 0.457152
vn 0.363526 -0.495894 0.788631
vn 0.144348 -0.499774 0.854043
vn -0.0675439 -0.498107 0.864481
vn -0.207346 -0.497876 0.842097
vn -0.316366 -0.495332 0.809048
vn -0.361439 -0.493117 0.791326
vn 0.437355 0.000553514 0.899289
vn 0.186776 0.000389035 0.982403
vn -0.0607958 0.000782338 0.99815
vn -0.224646 0.000348925 0.97444
vn -0.349973 -0.000425791 0.93676
vn -0.417152 4.7905e-005 0.908837
vn 0.373807 0.49724 0.782956
vn 0.158108 0.500876 0.850956
vn -0.0586463 0.499692 0.864216
vn -0.202499 0.498623 0.842834
vn -0.310254 0.495156 0.811519
vn -0.377659 0.491928 0.784462
vn 0.190038 0.865078 0.464247
vn 0.0665393 0.866072 0.495471
vn -0.061531 0.8645 0.498852
vn -0.146536 0.863657 0.482311
vn -0.207349 0.861136 0.464168
vn -0.252164 0.858081 0.447336
# 167 normals
usemtl Material__1
f  1/1/1 2/2/2 3/3/3
f  3/3/3 2/2/2 4/4/4 5/5/5
f  5/5/5 4/4/4 6/6/6 7/7/7
f  7/7/7 6/6/6 8/8/8 9/9/9
f  9/9/9 8/8/8 10/10/10 11/11/11
f  11/11/11 10/10/10 12/12/12
f  1/1/1 3/3/3 13/13/13
f  13/13/13 3/3/3 5/5/5 14/14/14
f  14/14/14 5/5/5 7/7/7 15/15/15
f  15/15/15 7/7/7 9/9/9 16/16/16
f  16/16/16 9/9/9 11/11/11 17/17/17
f  17/17/17 11/11/11 12/12/12
f  1/1/1 13/13/13 18/18/18
f  18/18/18 13/13/13 14/14/14 19/19/19
f  19/19/19 14/14/14 15/15/15 20/20/20
f  20/20/20 15/15/15 16/16/16 21/21/21
f  21/21/21 16/16/16 17/17/17 22/22/22
f  22/22/22 17/17/17 12/12/12
f  1/1/1 18/18/18 23/23/23
f  23/23/23 18/18/18 19/19/19 24/24/24
f  24/24/24 19/19/19 20/20/20 25/25/25
f  25/26/25 20/20/20 21/21/21 26/27/26
f  26/27/26 21/21/21 22/22/22 27/28/27
f  27/28/27 22/22/22 12/12/12
f  1/1/1 23/23/23 28/29/28
f  28/29/28 23/23/23 24/24/24 29/30/29
f  29/30/29 24/24/24 25/31/25 30/32/30
f  30/33/30 25/34/25 26/27/26 31/35/31
f  31/35/31 26/27/26 27/28/27 32/36/32
f  32/36/32 27/28/27 12/12/12
f  1/37/1 28/38/28 33/39/33
f  33/39/33 28/38/28 29/40/29 34/41/34
f  34/41/34 29/40/29 30/33/30 35/42/35
f  35/42/35 30/33/30 31/35/31 36/43/36
f  36/43/36 31/35/31 32/36/32 37/44/37
f  37/44/37 32/36/32 12/12/12
f  1/37/1 33/39/33 38/45/38
f  38/45/38 33/39/33 34/41/34 39/46/39
f  39/46/39 34/41/34 35/42/35 40/47/40
f  40/47/40 35/42/35 36/43/36 41/48/41
f  41/48/41 36/43/36 37/44/37 42/49/42
f  42/49/42 37/44/37 12/12/12
f  1/37/1 38/45/38 43/50/43
f  43/50/43 38/45/38 39/46/39 44/51/44
f  44/51/44 39/46/39 40/47/40 45/52/45
f  45/52/45 40/47/40 41/48/41 46/53/46
f  46/53/46 41/48/41 42/49/42 47/54/47
f  47/54/47 42/49/42 12/12/12
f  48/55/48 49/56/49 50/57/50
f  51/58/51 52/59/52 49/56/49 48/55/48
f  53/60/53 54/61/54 52/59/52 51/58/51
f  55/62/55 56/63/56 54/61/54 53/60/53
f  57/64/57 58/65/58 56/63/56 55/62/55
f  59/66/59 58/65/58 57/64/57
f  60/67/60 48/55/48 50/57/50
f  61/68/61 51/58/51 48/55/48 60/67/60
f  62/69/62 53/60/53 51/58/51 61/68/61
f  63/70/63 55/62/55 53/60/53 62/69/62
f  64/71/64 57/64/57 55/62/55 63/70/63
f  59/66/59 57/64/57 64/71/64
f  65/72/65 60/67/60 50/57/50
f  66/73/66 61/68/61 60/67/60 65/72/65
f  67/74/67 62/69/62 61/68/61 66/73/66
f  68/75/68 63/70/63 62/69/62 67/74/67
f  69/76/69 64/71/64 63/70/63 68/75/68
f  59/66/59 64/71/64 69/76/69
f  70/77/70 65/72/65 50/57/50
f  71/78/71 66/73/66 65/72/65 70/77/70
f  72/79/72 67/74/67 66/73/66 71/78/71
f  73/80/73 68/75/68 67/74/67 72/81/72
f  74/82/74 69/76/69 68/75/68 73/80/73
f  59/66/59 69/76/69 74/82/74
f  75/83/75 70/77/70 50/57/50
f  76/84/76 71/78/71 70/77/70 75/83/75
f  77/85/77 72/86/72 71/78/71 76/84/76
f  78/87/78 73/80/73 72/88/72 77/89/77
f  79/90/79 74/82/74 73/80/73 78/87/78
f  59/66/59 74/82/74 79/90/79
f  80/91/80 75/92/75 50/93/50
f  81/94/81 76/95/76 75/92/75 80/91/80
f  82/96/82 77/89/77 76/95/76 81/94/81
f  83/97/83 78/87/78 77/89/77 82/96/82
f  84/98/84 79/90/79 78/87/78 83/97/83
f  59/66/59 79/90/79 84/98/84
f  85/99/85 80/91/80 50/93/50
f  86/100/86 81/94/81 80/91/80 85/99/85
f  87/101/87 82/96/82 81/94/81 86/100/86
f  88/102/88 83/97/83 82/96/82 87/101/87
f  89/103/89 84/98/84 83/97/83 88/102/88
f  59/66/59 84/98/84 89/103/89
f  90/104/90 85/99/85 50/93/50
f  91/105/91 86/100/86 85/99/85 90/104/90
f  92/106/92 87/101/87 86/100/86 91/105/91
f  93/107/93 88/102/88 87/101/87 92/106/92
f  94/108/94 89/103/89 88/102/88 93/107/93
f  59/66/59 89/103/89 94/108/94
f  1/1/1 95/109/95 96/110/96 2/2/2
f  95/109/95 97/111/97 98/112/98 96/110/96
f  97/111/97 99/113/99 100/114/100 98/112/98
f  99/113/99 101/115/101 102/116/102 100/114/100
f  101/115/101 103/117/103 104/118/104 102/116/102
f  105/119/105 50/57/50 49/56/49 106/120/106
f  103/117/103 105/119/105 106/120/106 104/118/104
f  2/2/2 96/110/96 107/121/107 4/4/4
f  96/110/96 98/112/98 108/122/108 107/121/107
f  98/112/98 100/114/100 109/123/109 108/122/108
f  100/114/100 102/116/102 110/124/110 109/123/109
f  102/116/102 104/118/104 111/125/111 110/124/110
f  106/120/106 49/56/49 52/59/52 112/126/112
f  104/118/104 106/120/106 112/126/112 111/125/111
f  4/4/4 107/121/107 113/127/113 114/6/114
f  107/121/107 108/122/108 115/128/115 113/127/113
f  108/122/108 109/123/109 116/129/116 115/128/115
f  109/123/109 110/124/110 117/130/117 116/129/116
f  110/124/110 111/125/111 118/131/118 117/130/117
f  112/126/112 52/59/52 54/61/54 119/132/119
f  111/125/111 112/126/112 119/132/119 118/131/118
f  114/6/114 113/127/113 120/133/120 8/8/8
f  113/127/113 115/128/115 121/134/121 120/133/120
f  115/128/115 116/129/116 122/135/122 121/134/121
f  116/129/116 117/130/117 123/136/123 122/135/122
f  117/130/117 118/131/118 124/137/124 123/136/123
f  119/132/119 54/61/54 56/63/56 125/138/125
f  118/131/118 119/132/119 125/138/125 124/137/124
f  8/8/8 120/133/120 126/139/126 10/10/10
f  120/133/120 121/134/121 127/140/127 126/139/126
f  121/134/121 122/135/122 128/141/128 127/140/127
f  122/135/122 123/136/123 129/142/129 128/141/128
f  123/136/123 124/137/124 130/143/130 129/142/129
f  125/138/125 56/63/56 58/65/58 131/144/131
f  124/137/124 125/138/125 131/144/131 130/143/130
f  10/10/10 126/139/126 132/145/132 12/12/12
f  126/139/126 127/140/127 133/146/133 132/145/132
f  127/140/127 128/141/128 134/147/134 133/146/133
f  128/141/128 129/142/129 135/148/135 134/147/134
f  129/142/129 130/143/130 136/149/136 135/148/135
f  131/144/131 58/65/58 59/66/59 137/150/137
f  130/143/130 131/144/131 137/150/137 136/149/136
f  12/12/12 132/145/132 138/151/138 47/54/47
f  132/145/132 133/146/133 139/152/139 138/151/138
f  133/146/133 134/147/134 140/153/140 139/152/139
f  134/147/134 135/148/135 141/154/141 140/153/140
f  135/148/135 136/149/136 142/155/142 141/154/141
f  137/150/137 59/66/59 94/108/94 143/156/143
f  136/149/136 137/150/137 143/156/143 142/155/142
f  47/54/47 138/151/138 144/157/144 46/53/46
f  138/151/138 139/152/139 145/158/145 144/157/144
f  139/152/139 140/153/140 146/159/146 145/158/145
f  140/153/140 141/154/141 147/160/147 146/159/146
f  141/154/141 142/155/142 148/161/148 147/160/147
f  143/156/143 94/108/94 93/107/93 149/162/149
f  142/155/142 143/156/143 149/162/149 148/161/148
f  46/53/46 144/157/144 150/163/150 45/52/45
f  144/157/144 145/158/145 151/164/151 150/163/150
f  145/158/145 146/159/146 152/165/152 151/164/151
f  146/159/146 147/160/147 153/166/153 152/165/152
f  147/160/147 148/161/148 154/167/154 153/166/153
f  149/162/149 93/107/93 92/106/92 155/168/155
f  148/161/148 149/162/149 155/168/155 154/167/154
f  45/52/45 150/163/150 156/169/156 44/51/44
f  150/163/150 151/164/151 157/170/157 156/169/156
f  151/164/151 152/165/152 158/171/158 157/170/157
f  152/165/152 153/166/153 159/172/159 158/171/158
f  153/166/153 154/167/154 160/173/160 159/172/159
f  155/168/155 92/106/92 91/105/91 161/174/161
f  154/167/154 155/168/155 161/174/161 160/173/160
f  44/51/44 156/169/156 162/175/162 43/50/43
f  156/169/156 157/170/157 163/176/163 162/175/162
f  157/170/157 158/171/158 164/177/164 163/176/163
f  158/171/158 159/172/159 165/178/165 164/177/164
f  159/172/159 160/173/160 166/179/166 165/178/165
f  161/174/161 91/105/91 90/104/90 167/180/167
f  160/173/160 161/174/161 167/180/167 166/179/166
f  43/50/43 162/175/162 95/181/95 1/37/1
f  162/175/162 163/176/163 97/182/97 95/181/95
f  163/176/163 164/177/164 99/183/99 97/182/97
f  164/177/164 165/178/165 101/184/101 99/183/99
f  165/178/165 166/179/166 103/185/103 101/184/101
f  167/180/167 90/104/90 50/93/50 105/186/105
f  166/179/166 167/180/167 105/186/105 103/185/103
